<svg width="178" height="49" viewBox="0 0 178 49" fill="none" xmlns="http://www.w3.org/2000/svg">
<path d="M46.6767 38.2593H40.8135V9.49905H46.6767V38.2593Z" fill="white"/>
<path d="M70.5757 18.856V38.2984C70.5757 44.3248 65.8771 48.0178 60.1327 48.0178C54.3889 48.0178 50.4535 44.5636 50.0521 39.7018L55.8757 39.742C56.1181 41.7886 57.9229 42.715 60.3355 42.715C62.5855 42.715 64.7125 41.5108 64.7125 38.3386V35.89C63.2257 36.8554 61.2979 37.4164 59.1709 37.4164C53.8285 37.4164 49.5312 33.079 49.5312 28.0978C49.5312 22.3144 53.8285 18.4186 59.1709 18.4186C61.3015 18.4186 63.2299 18.979 64.7125 19.945V18.8998L70.5757 18.8602V18.856ZM64.7125 30.3046V25.5664C63.5077 23.8372 61.8619 23.2366 60.2125 23.2366C57.3187 23.2366 55.3507 25.165 55.3507 28.0978C55.3507 30.2686 57.3583 32.5978 60.2125 32.5978C61.8583 32.638 63.5473 32.038 64.7125 30.3082V30.3046Z" fill="white"/>
<path d="M93.9584 28.3375C93.9584 34.3243 89.5382 38.5813 83.5952 38.5813C77.6522 38.5813 73.1924 34.3243 73.1924 28.3375C73.1924 22.3501 77.6126 18.0535 83.5952 18.0535C89.5778 18.0535 93.9584 22.3903 93.9584 28.3375ZM88.2938 28.3375C88.2938 25.5265 86.4452 23.2369 83.5952 23.2369C80.7452 23.2369 78.857 25.5265 78.857 28.3375C78.857 31.1479 80.705 33.3979 83.5952 33.3979C86.4452 33.3577 88.2938 31.2271 88.2938 28.3375Z" fill="white"/>
<path d="M130.35 18.8961V38.2192L124.605 38.2588V37.174C123.119 38.14 121.191 38.74 119.064 38.74C113.721 38.74 109.425 34.2004 109.425 28.6192C109.425 23.038 113.721 18.4551 119.064 18.4551C121.195 18.4551 123.123 19.0587 124.605 20.0211V18.9357L130.35 18.8961ZM124.566 31.549V25.6462C123.362 23.9164 121.672 23.4358 119.987 23.4358C117.053 23.4358 115.005 25.8052 115.005 28.6192C115.005 31.4338 117.053 33.7588 119.987 33.7588C121.672 33.7588 123.362 33.2782 124.566 31.549Z" fill="white"/>
<path d="M153.967 27.7769V38.2595H148.302V28.4567C148.302 25.2845 146.736 23.6351 143.926 23.6351C142.479 23.6351 140.833 24.4775 139.466 26.0837V38.2553H133.682V18.9323H139.466V20.3789C141.032 19.1351 142.88 18.4511 145.051 18.4511C150.191 18.4511 153.967 22.0643 153.967 27.7685V27.7769Z" fill="white"/>
<path d="M38.1227 38.2195H32.1761L28.2802 23.7978L19.9246 38.2195H13.258L26.1532 15.8868L24.0664 8.09581L6.66699 38.2195H0.000976562L22.0552 0.0179939H27.9184L30.4504 9.53882H36.4769L32.3788 16.6902L38.1227 38.2195Z" fill="white"/>
<path d="M177.305 9.49917V38.2596H171.442V37.1742C169.955 38.1402 168.027 38.7402 165.9 38.7402C160.558 38.7402 156.261 34.2006 156.261 28.5762C156.261 22.9512 160.558 18.4554 165.9 18.4554C168.031 18.4554 169.959 19.0596 171.442 20.0214V9.49497H177.305V9.49917ZM171.442 31.5492V25.6026C170.237 23.8734 168.508 23.3922 166.823 23.3922C163.85 23.3922 161.802 25.7616 161.802 28.5762C161.802 31.3902 163.85 33.7992 166.823 33.7992C168.508 33.7992 170.198 33.318 171.442 31.5492Z" fill="white"/>
<path d="M108.335 23.7977C107.051 23.9567 104.077 24.1193 102.308 26.5289V38.2595H96.5244V18.9797H102.308V20.4269C103.632 19.3019 105.604 18.6179 108.335 18.9005V23.8019V23.7977Z" fill="white"/>
</svg>
