<svg width="42" height="33" viewBox="0 0 42 33" fill="none" xmlns="http://www.w3.org/2000/svg">
<path d="M27.9634 21.8356C25.8909 21.8356 24.1901 19.9374 24.1901 17.6065C24.1901 15.2756 25.8529 13.3623 27.9634 13.3623C30.074 13.3623 31.7598 15.2605 31.7368 17.5955C31.7138 19.9304 30.074 21.8356 27.9634 21.8356ZM14.0109 21.8356C11.9384 21.8356 10.2375 19.9374 10.2375 17.6065C10.2375 15.2756 11.9003 13.3623 14.0109 13.3623C16.1224 13.3623 17.8083 15.2605 17.7893 17.5955C17.7692 19.9304 16.1224 21.8356 14.0109 21.8356ZM35.5643 2.69434C32.8066 1.4242 29.8937 0.524677 26.9006 0.0178223C26.521 0.681942 26.0913 1.57345 25.7918 2.29466C22.6094 1.82086 19.3729 1.82086 16.1906 2.29466C15.85 1.51735 15.4703 0.756067 15.0516 0.0178223C12.0546 0.524677 9.13867 1.4282 6.38101 2.70536C0.913785 10.8561 -0.570721 18.8135 0.169529 26.6498C3.37894 29.0348 6.97501 30.8488 10.7995 32.0138C11.6599 30.8478 12.4222 29.6128 13.0773 28.3206C11.8352 27.8558 10.6352 27.2828 9.49326 26.6087C9.79177 26.3823 10.0803 26.1559 10.3587 25.9285C17.0891 29.1109 24.8902 29.1109 31.6196 25.9285C31.9041 26.1629 32.1996 26.3913 32.4961 26.6117C31.3522 27.2898 30.1511 27.8658 28.905 28.3316C29.5591 29.6218 30.3214 30.8549 31.1829 32.0178C35.0093 30.8569 38.6054 29.0418 41.8128 26.6538C42.6783 17.5684 40.3173 9.68313 35.5643 2.69434Z" fill="white"/>
</svg>
