<svg width="35" height="33" viewBox="0 0 35 33" fill="none" xmlns="http://www.w3.org/2000/svg">
<path d="M5.82786 2.7324L7.27831 2.7334C8.03859 2.73441 8.82592 2.73441 9.59922 2.7284C9.65532 2.72739 9.67034 2.72739 9.72744 2.80452C12.3108 6.26637 14.8972 9.7262 17.4825 13.187L19.2635 15.5691C20.6399 17.4112 22.0152 19.2523 23.3905 21.0944L24.9081 23.1248C26.4306 25.1633 27.9522 27.2007 29.4738 29.2381C29.0571 29.2401 28.6394 29.2411 28.2226 29.2421C27.3922 29.2431 26.5608 29.2451 25.7304 29.2522C25.6573 29.2542 25.6353 29.2461 25.5792 29.171C21.0946 23.1679 16.6081 17.1668 12.1215 11.1666L7.8072 5.3959C7.30034 4.71775 6.79649 4.03861 6.29164 3.35846L5.82786 2.7324ZM21.0996 13.4234L33.4735 0.0398579H32.0952C31.4241 0.0398579 30.789 0.0408611 30.1449 0.0358524C29.8764 0.0368538 29.6611 0.126003 29.4718 0.332352C26.679 3.35746 23.8823 6.37856 21.0866 9.39965L19.4298 11.1897L18.353 9.75025C16.0511 6.67405 13.6711 3.49269 11.3251 0.368412C11.217 0.22517 10.9936 0.0789223 10.7762 0.0769196C8.10971 0.0528793 5.39814 0.0388584 2.77671 0.0248337L1.62276 0.0178223H1.21107H0.844451L0.658137 0.412487L13.4918 17.5925L0.271484 31.9026L0.847456 31.9497C0.917574 31.9557 0.977676 31.9617 1.03177 31.9667C1.13895 31.9768 1.2301 31.9858 1.32426 31.9868L1.66884 31.9908C2.29891 31.9988 2.95101 32.0058 3.59309 31.9978C3.78742 31.9948 4.0148 31.8926 4.15804 31.7434C4.43451 31.4539 4.70697 31.1534 4.97041 30.8619C5.13469 30.6806 5.29897 30.5003 5.46525 30.32C7.49768 28.1222 9.53211 25.9245 11.5655 23.7278L14.6157 20.4313C14.791 20.2409 14.9653 20.0516 15.1426 19.8593L15.1746 19.8232L15.9419 20.852C16.6451 21.7946 17.3433 22.7312 18.0435 23.6667L20.3764 26.789C21.6055 28.4308 22.8336 30.0735 24.0606 31.7173C24.1718 31.8656 24.3251 32.0178 24.6146 32.0178H24.6176C26.3144 32.0128 28.0113 32.0108 29.7092 32.0088C30.9172 32.0078 32.1252 32.0058 33.3333 32.0038C33.5546 32.0028 33.778 31.9898 34.0154 31.9758C34.1336 31.9687 34.2588 31.9617 34.3921 31.9547L34.921 31.9297L21.0996 13.4234Z" fill="white"/>
</svg>
