<svg width="2003" height="1596" viewBox="0 0 2003 1596" fill="none" xmlns="http://www.w3.org/2000/svg">
<mask id="mask0_2222_59" style="mask-type:luminance" maskUnits="userSpaceOnUse" x="4" y="0" width="1795" height="1597">
<path d="M4 -2.96072e-05H1798.96V1596H4V-2.96072e-05Z" fill="white"/>
</mask>
<g mask="url(#mask0_2222_59)">
<g opacity="0.119995">
<path d="M1530.69 590.516L1746.35 214.208H1429.24L1372.27 -0.00465992H821.909L4 1416.74L335.736 1449.87L1093.3 138.278L1203.12 548.263L663.6 1482.61L995.647 1515.77L1315.03 964.524L1476.92 1563.83L1798.95 1595.99L1530.69 590.516Z" fill="#524DF6"/>
</g>
</g>
<path d="M578.566 379L353.151 379C342.747 379 333.13 384.749 327.904 394.089L2.93801 974.526C-5.37338 989.376 4.93763 1008 21.4724 1008H570.793C586.922 1008 600 994.42 600 977.665V401.275C600 388.975 590.398 379 578.561 379H578.566Z" fill="#FBE265"/>
<path d="M1445 60.0403L1445 260.284C1445 269.526 1450.1 278.069 1458.39 282.712L1973.3 571.39C1986.48 578.773 2003 569.614 2003 554.925L2003 66.9458C2003 52.6179 1990.95 41 1976.09 41L1464.76 41C1453.85 41 1445 49.5299 1445 60.0446L1445 60.0403Z" fill="#17CAC6"/>
</svg>
