<svg width="390" height="901" viewBox="0 0 390 901" fill="none" xmlns="http://www.w3.org/2000/svg">
<g clip-path="url(#clip0_2203_1249)">
<rect width="390" height="900" transform="translate(0 0.59668)" fill="white"/>
<path d="M91 -23.7574L91 109.238C91 115.376 94.5646 121.05 100.356 124.133L460.245 315.863C469.453 320.767 481 314.683 481 304.928L481 -19.171C481 -28.6872 472.58 -36.4033 462.191 -36.4033L104.811 -36.4033C97.1846 -36.4033 91 -30.7381 91 -23.7546L91 -23.7574Z" fill="#17CAC6"/>
<path d="M186.112 532.197L86.3281 532.197C81.7227 532.197 77.4656 535.564 75.1521 541.034L-68.6994 880.991C-72.3786 889.689 -67.8143 900.597 -60.4949 900.597H182.671C189.811 900.597 195.6 892.643 195.6 882.83V545.243C195.6 538.039 191.349 532.197 186.11 532.197H186.112Z" fill="#FBE265"/>
<path d="M152.929 273.597V260.506H158.17C159.133 260.506 159.937 260.649 160.58 260.934C161.224 261.22 161.707 261.616 162.031 262.123C162.355 262.626 162.517 263.205 162.517 263.862C162.517 264.373 162.415 264.823 162.21 265.21C162.006 265.594 161.724 265.909 161.366 266.156C161.013 266.399 160.608 266.572 160.152 266.674V266.802C160.65 266.823 161.117 266.964 161.552 267.224C161.991 267.484 162.346 267.848 162.619 268.317C162.892 268.781 163.028 269.335 163.028 269.979C163.028 270.673 162.856 271.293 162.51 271.839C162.17 272.38 161.665 272.808 160.996 273.124C160.327 273.439 159.502 273.597 158.522 273.597H152.929ZM155.697 271.334H157.953C158.724 271.334 159.287 271.187 159.64 270.893C159.994 270.595 160.171 270.198 160.171 269.704C160.171 269.342 160.084 269.022 159.909 268.745C159.734 268.468 159.485 268.251 159.161 268.093C158.841 267.935 158.46 267.857 158.017 267.857H155.697V271.334ZM155.697 265.984H157.748C158.128 265.984 158.464 265.918 158.758 265.786C159.057 265.649 159.291 265.457 159.461 265.21C159.636 264.963 159.724 264.667 159.724 264.322C159.724 263.849 159.555 263.467 159.219 263.178C158.886 262.888 158.413 262.743 157.8 262.743H155.697V265.984ZM171.074 269.416V263.778H173.797V273.597H171.183V271.813H171.081C170.859 272.389 170.49 272.851 169.975 273.2C169.463 273.55 168.839 273.725 168.102 273.725C167.446 273.725 166.868 273.575 166.37 273.277C165.871 272.979 165.481 272.555 165.2 272.005C164.923 271.455 164.782 270.797 164.778 270.03V263.778H167.501V269.544C167.505 270.124 167.661 270.582 167.968 270.918C168.275 271.255 168.686 271.423 169.201 271.423C169.529 271.423 169.836 271.349 170.122 271.2C170.407 271.046 170.637 270.82 170.812 270.522C170.991 270.224 171.078 269.855 171.074 269.416ZM175.975 273.597V263.778H178.698V273.597H175.975ZM177.343 262.513C176.938 262.513 176.591 262.379 176.301 262.11C176.016 261.837 175.873 261.511 175.873 261.132C175.873 260.757 176.016 260.435 176.301 260.167C176.591 259.894 176.938 259.758 177.343 259.758C177.748 259.758 178.093 259.894 178.379 260.167C178.669 260.435 178.813 260.757 178.813 261.132C178.813 261.511 178.669 261.837 178.379 262.11C178.093 262.379 177.748 262.513 177.343 262.513ZM183.603 260.506V273.597H180.88V260.506H183.603ZM189.402 273.756C188.656 273.756 187.981 273.565 187.376 273.181C186.775 272.793 186.297 272.225 185.944 271.475C185.594 270.72 185.42 269.796 185.42 268.7C185.42 267.575 185.601 266.64 185.963 265.894C186.325 265.144 186.807 264.584 187.407 264.213C188.013 263.838 188.675 263.651 189.395 263.651C189.945 263.651 190.403 263.744 190.77 263.932C191.14 264.115 191.439 264.345 191.665 264.622C191.895 264.895 192.069 265.163 192.189 265.428H192.272V260.506H194.988V273.597H192.304V272.024H192.189C192.061 272.297 191.88 272.568 191.645 272.836C191.415 273.1 191.115 273.32 190.744 273.494C190.378 273.669 189.93 273.756 189.402 273.756ZM190.265 271.59C190.704 271.59 191.074 271.47 191.377 271.232C191.684 270.989 191.918 270.65 192.08 270.215C192.246 269.781 192.329 269.271 192.329 268.688C192.329 268.104 192.248 267.597 192.086 267.166C191.925 266.736 191.69 266.403 191.383 266.169C191.077 265.935 190.704 265.818 190.265 265.818C189.817 265.818 189.44 265.939 189.133 266.182C188.827 266.425 188.594 266.761 188.437 267.192C188.279 267.622 188.2 268.121 188.2 268.688C188.2 269.259 188.279 269.764 188.437 270.203C188.599 270.637 188.831 270.978 189.133 271.225C189.44 271.468 189.817 271.59 190.265 271.59ZM212.394 260.506V273.597H210.003L204.308 265.357H204.212V273.597H201.444V260.506H203.873L209.524 268.739H209.639V260.506H212.394ZM219.066 273.788C218.073 273.788 217.214 273.578 216.49 273.156C215.77 272.729 215.213 272.137 214.821 271.379C214.429 270.616 214.233 269.732 214.233 268.726C214.233 267.712 214.429 266.825 214.821 266.067C215.213 265.304 215.77 264.712 216.49 264.29C217.214 263.864 218.073 263.651 219.066 263.651C220.059 263.651 220.915 263.864 221.635 264.29C222.36 264.712 222.918 265.304 223.31 266.067C223.702 266.825 223.898 267.712 223.898 268.726C223.898 269.732 223.702 270.616 223.31 271.379C222.918 272.137 222.36 272.729 221.635 273.156C220.915 273.578 220.059 273.788 219.066 273.788ZM219.078 271.679C219.53 271.679 219.907 271.551 220.21 271.296C220.512 271.036 220.74 270.682 220.894 270.234C221.051 269.787 221.13 269.278 221.13 268.707C221.13 268.136 221.051 267.627 220.894 267.179C220.74 266.732 220.512 266.378 220.21 266.118C219.907 265.858 219.53 265.728 219.078 265.728C218.623 265.728 218.239 265.858 217.928 266.118C217.621 266.378 217.389 266.732 217.231 267.179C217.078 267.627 217.001 268.136 217.001 268.707C217.001 269.278 217.078 269.787 217.231 270.234C217.389 270.682 217.621 271.036 217.928 271.296C218.239 271.551 218.623 271.679 219.078 271.679ZM227.359 273.597L224.688 263.778H227.442L228.964 270.375H229.053L230.638 263.778H233.342L234.953 270.337H235.036L236.532 263.778H239.281L236.615 273.597H233.732L232.045 267.422H231.923L230.236 273.597H227.359ZM155.255 286.737C155.165 286.426 155.04 286.151 154.878 285.913C154.716 285.67 154.517 285.465 154.283 285.299C154.053 285.129 153.789 284.999 153.491 284.909C153.196 284.82 152.87 284.775 152.513 284.775C151.843 284.775 151.255 284.941 150.748 285.274C150.245 285.606 149.853 286.09 149.572 286.725C149.291 287.355 149.15 288.127 149.15 289.038C149.15 289.95 149.289 290.726 149.566 291.365C149.843 292.004 150.235 292.492 150.742 292.829C151.249 293.161 151.848 293.328 152.538 293.328C153.165 293.328 153.699 293.217 154.142 292.995C154.59 292.769 154.931 292.452 155.165 292.043C155.404 291.634 155.523 291.15 155.523 290.592L156.086 290.675H152.711V288.591H158.189V290.24C158.189 291.391 157.946 292.379 157.46 293.206C156.974 294.028 156.305 294.663 155.453 295.111C154.601 295.554 153.625 295.776 152.525 295.776C151.298 295.776 150.22 295.505 149.291 294.964C148.362 294.418 147.638 293.645 147.118 292.644C146.602 291.638 146.344 290.445 146.344 289.064C146.344 288.003 146.498 287.057 146.804 286.226C147.116 285.391 147.55 284.683 148.108 284.104C148.667 283.524 149.316 283.083 150.058 282.781C150.799 282.478 151.603 282.327 152.468 282.327C153.209 282.327 153.9 282.435 154.539 282.653C155.178 282.866 155.745 283.168 156.239 283.56C156.738 283.953 157.145 284.419 157.46 284.96C157.775 285.497 157.978 286.09 158.067 286.737H155.255ZM164.653 295.788C163.66 295.788 162.801 295.578 162.077 295.156C161.356 294.729 160.8 294.137 160.408 293.379C160.016 292.616 159.82 291.732 159.82 290.726C159.82 289.712 160.016 288.825 160.408 288.067C160.8 287.304 161.356 286.712 162.077 286.29C162.801 285.864 163.66 285.651 164.653 285.651C165.646 285.651 166.502 285.864 167.222 286.29C167.947 286.712 168.505 287.304 168.897 288.067C169.289 288.825 169.485 289.712 169.485 290.726C169.485 291.732 169.289 292.616 168.897 293.379C168.505 294.137 167.947 294.729 167.222 295.156C166.502 295.578 165.646 295.788 164.653 295.788ZM164.665 293.679C165.117 293.679 165.494 293.551 165.797 293.296C166.099 293.036 166.327 292.682 166.481 292.234C166.638 291.787 166.717 291.278 166.717 290.707C166.717 290.136 166.638 289.627 166.481 289.179C166.327 288.732 166.099 288.378 165.797 288.118C165.494 287.858 165.117 287.728 164.665 287.728C164.209 287.728 163.826 287.858 163.515 288.118C163.208 288.378 162.976 288.732 162.818 289.179C162.665 289.627 162.588 290.136 162.588 290.707C162.588 291.278 162.665 291.787 162.818 292.234C162.976 292.682 163.208 293.036 163.515 293.296C163.826 293.551 164.209 293.679 164.665 293.679ZM175.473 295.597V282.506H180.714C181.677 282.506 182.481 282.649 183.124 282.934C183.767 283.22 184.251 283.616 184.575 284.123C184.899 284.626 185.061 285.205 185.061 285.862C185.061 286.373 184.959 286.823 184.754 287.21C184.549 287.594 184.268 287.909 183.91 288.156C183.557 288.399 183.152 288.572 182.696 288.674V288.802C183.194 288.823 183.661 288.964 184.096 289.224C184.535 289.484 184.89 289.848 185.163 290.317C185.436 290.781 185.572 291.335 185.572 291.979C185.572 292.673 185.4 293.293 185.054 293.839C184.714 294.38 184.209 294.808 183.54 295.124C182.87 295.439 182.046 295.597 181.066 295.597H175.473ZM178.241 293.334H180.497C181.268 293.334 181.831 293.187 182.184 292.893C182.538 292.595 182.715 292.198 182.715 291.704C182.715 291.342 182.628 291.022 182.453 290.745C182.278 290.468 182.029 290.251 181.705 290.093C181.385 289.935 181.004 289.857 180.561 289.857H178.241V293.334ZM178.241 287.984H180.292C180.672 287.984 181.008 287.918 181.302 287.786C181.601 287.649 181.835 287.457 182.005 287.21C182.18 286.963 182.267 286.667 182.267 286.322C182.267 285.849 182.099 285.467 181.763 285.178C181.43 284.888 180.957 284.743 180.343 284.743H178.241V287.984ZM191.796 295.788C190.786 295.788 189.917 295.584 189.188 295.175C188.464 294.761 187.906 294.178 187.514 293.423C187.122 292.665 186.926 291.768 186.926 290.732C186.926 289.722 187.122 288.836 187.514 288.073C187.906 287.31 188.458 286.716 189.169 286.29C189.885 285.864 190.725 285.651 191.688 285.651C192.335 285.651 192.938 285.755 193.497 285.964C194.059 286.168 194.549 286.477 194.967 286.891C195.389 287.304 195.717 287.824 195.951 288.45C196.186 289.073 196.303 289.801 196.303 290.636V291.384H188.012V289.697H193.74C193.74 289.305 193.654 288.957 193.484 288.655C193.313 288.352 193.077 288.116 192.774 287.945C192.476 287.771 192.129 287.683 191.733 287.683C191.319 287.683 190.953 287.779 190.633 287.971C190.318 288.158 190.071 288.412 189.892 288.732C189.713 289.047 189.621 289.399 189.617 289.786V291.391C189.617 291.877 189.706 292.296 189.885 292.65C190.068 293.004 190.326 293.276 190.659 293.468C190.991 293.66 191.385 293.756 191.841 293.756C192.144 293.756 192.421 293.713 192.672 293.628C192.924 293.543 193.139 293.415 193.318 293.244C193.497 293.074 193.633 292.865 193.727 292.618L196.245 292.784C196.117 293.389 195.855 293.918 195.459 294.369C195.067 294.817 194.56 295.166 193.938 295.418C193.32 295.665 192.606 295.788 191.796 295.788ZM199.497 299.278C199.152 299.278 198.828 299.251 198.526 299.195C198.227 299.144 197.98 299.078 197.784 298.997L198.398 296.965C198.717 297.063 199.005 297.116 199.261 297.124C199.521 297.133 199.744 297.073 199.932 296.945C200.124 296.818 200.279 296.6 200.399 296.293L200.558 295.878L197.036 285.778H199.9L201.933 292.989H202.035L204.087 285.778H206.97L203.153 296.658C202.97 297.186 202.721 297.646 202.406 298.038C202.095 298.435 201.7 298.739 201.223 298.953C200.746 299.17 200.171 299.278 199.497 299.278ZM212.483 295.788C211.49 295.788 210.631 295.578 209.907 295.156C209.187 294.729 208.63 294.137 208.238 293.379C207.846 292.616 207.65 291.732 207.65 290.726C207.65 289.712 207.846 288.825 208.238 288.067C208.63 287.304 209.187 286.712 209.907 286.29C210.631 285.864 211.49 285.651 212.483 285.651C213.476 285.651 214.332 285.864 215.052 286.29C215.777 286.712 216.335 287.304 216.727 288.067C217.119 288.825 217.315 289.712 217.315 290.726C217.315 291.732 217.119 292.616 216.727 293.379C216.335 294.137 215.777 294.729 215.052 295.156C214.332 295.578 213.476 295.788 212.483 295.788ZM212.495 293.679C212.947 293.679 213.324 293.551 213.627 293.296C213.929 293.036 214.157 292.682 214.311 292.234C214.468 291.787 214.547 291.278 214.547 290.707C214.547 290.136 214.468 289.627 214.311 289.179C214.157 288.732 213.929 288.378 213.627 288.118C213.324 287.858 212.947 287.728 212.495 287.728C212.04 287.728 211.656 287.858 211.345 288.118C211.038 288.378 210.806 288.732 210.648 289.179C210.495 289.627 210.418 290.136 210.418 290.707C210.418 291.278 210.495 291.787 210.648 292.234C210.806 292.682 211.038 293.036 211.345 293.296C211.656 293.551 212.04 293.679 212.495 293.679ZM221.809 289.921V295.597H219.086V285.778H221.681V287.511H221.796C222.013 286.94 222.378 286.488 222.889 286.156C223.4 285.819 224.02 285.651 224.749 285.651C225.431 285.651 226.025 285.8 226.532 286.098C227.04 286.396 227.434 286.823 227.715 287.377C227.996 287.926 228.137 288.582 228.137 289.345V295.597H225.414V289.831C225.418 289.23 225.265 288.761 224.954 288.425C224.642 288.084 224.214 287.913 223.669 287.913C223.302 287.913 222.978 287.992 222.697 288.15C222.42 288.308 222.203 288.538 222.045 288.84C221.892 289.139 221.813 289.499 221.809 289.921ZM233.901 295.756C233.155 295.756 232.48 295.565 231.875 295.181C231.274 294.793 230.796 294.225 230.443 293.475C230.093 292.72 229.919 291.796 229.919 290.7C229.919 289.575 230.1 288.64 230.462 287.894C230.824 287.144 231.306 286.584 231.907 286.213C232.512 285.838 233.174 285.651 233.894 285.651C234.444 285.651 234.902 285.744 235.269 285.932C235.639 286.115 235.938 286.345 236.164 286.622C236.394 286.895 236.568 287.163 236.688 287.428H236.771V282.506H239.487V295.597H236.803V294.024H236.688C236.56 294.297 236.379 294.568 236.144 294.836C235.914 295.1 235.614 295.32 235.243 295.494C234.877 295.669 234.429 295.756 233.901 295.756ZM234.764 293.59C235.203 293.59 235.573 293.47 235.876 293.232C236.183 292.989 236.417 292.65 236.579 292.215C236.745 291.781 236.828 291.271 236.828 290.688C236.828 290.104 236.747 289.597 236.585 289.166C236.424 288.736 236.189 288.403 235.882 288.169C235.576 287.935 235.203 287.818 234.764 287.818C234.316 287.818 233.939 287.939 233.632 288.182C233.326 288.425 233.093 288.761 232.936 289.192C232.778 289.622 232.699 290.121 232.699 290.688C232.699 291.259 232.778 291.764 232.936 292.203C233.098 292.637 233.33 292.978 233.632 293.225C233.939 293.468 234.316 293.59 234.764 293.59ZM243.318 295.763C242.896 295.763 242.534 295.614 242.231 295.315C241.933 295.013 241.784 294.651 241.784 294.229C241.784 293.811 241.933 293.453 242.231 293.155C242.534 292.857 242.896 292.707 243.318 292.707C243.727 292.707 244.085 292.857 244.392 293.155C244.699 293.453 244.852 293.811 244.852 294.229C244.852 294.51 244.78 294.768 244.635 295.002C244.494 295.232 244.309 295.418 244.079 295.558C243.848 295.695 243.595 295.763 243.318 295.763Z" fill="white"/>
</g>
<defs>
<clipPath id="clip0_2203_1249">
<rect width="390" height="900" fill="white" transform="translate(0 0.59668)"/>
</clipPath>
</defs>
</svg>
