<svg width="46" height="33" viewBox="0 0 46 33" fill="none" xmlns="http://www.w3.org/2000/svg">
<path fill-rule="evenodd" clip-rule="evenodd" d="M18.2216 22.8744V9.2474L30.0015 16.0168L18.2216 22.8744ZM44.8596 7.05069C44.1554 1.86294 41.5189 0.983454 36.3312 0.544714C31.8476 0.193121 26.749 0.0178242 22.7933 0.0178242C18.8367 0.0178242 13.6499 0.193121 9.2545 0.544714C4.06775 0.983454 1.34215 1.86294 0.638962 7.05069C0.375517 9.4237 0.199219 12.6762 0.199219 16.0168C0.199219 19.3575 0.375517 22.6991 0.638962 24.984C1.34215 30.2589 4.06775 31.0502 9.2545 31.4909C13.6499 31.9297 18.8367 32.0178 22.7933 32.0178C26.749 32.0178 31.8476 31.9297 36.3312 31.4909C41.5189 31.0502 44.1554 30.2589 44.8596 24.984C45.2112 22.6991 45.3865 19.3575 45.3865 16.0168C45.3865 12.6762 45.2112 9.4237 44.8596 7.05069Z" fill="white"/>
</svg>
